<svg width="211" height="101" viewBox="0 0 211 101" fill="none" xmlns="http://www.w3.org/2000/svg">
<g id="logo">
<g id="Group 25">
<g id="Group 24">
<path id="Vector 5" d="M166.376 0C144.89 17.9046 111.009 50.6839 94.757 72.7204C102.837 66.3849 129.74 42.1448 166.376 0Z" fill="#BC1D2E"/>
<path id="Vector 6" d="M163.07 13.7727C141.584 31.6773 107.703 64.4566 91.4513 86.4931C99.5314 80.1576 126.434 55.9175 163.07 13.7727Z" fill="#0E8752"/>
<path id="Vector 7" d="M168.579 18.7311C147.094 36.6357 113.213 69.415 96.9607 91.4514C105.041 85.116 131.944 60.8758 168.579 18.7311Z" fill="#4E42AA"/>
<path id="Frontier" d="M12.7309 66.3655H2.41092V25.5521H27.6569V34.1229H12.7309V43.0435H22.9925V51.6144H12.7309V66.3655ZM39.7333 66.3655H29.4134V37.2131H38.5672L39.7333 41.5276C41.4242 38.6707 44.2811 36.9215 48.1875 36.9215C54.1929 36.9215 56.0004 42.6354 54.2512 51.2645L43.9313 52.4306V47.5913C43.9313 45.3757 43.5231 44.3262 41.8323 44.3262C40.1414 44.3262 39.7333 45.3757 39.7333 47.5913V66.3655ZM69.968 66.657C64.0792 66.657 56.6162 64.6163 56.6162 55.8123V47.7662C56.6162 38.9622 64.0792 36.9215 69.968 36.9215C75.8568 36.9215 83.2615 38.9622 83.2615 47.7662V55.8123C83.2615 64.6163 75.8568 66.657 69.968 66.657ZM69.968 59.2523C72.1253 59.2523 72.9416 58.2028 72.9416 55.9872V47.5913C72.9416 45.3757 72.1253 44.3262 69.968 44.3262C67.8107 44.3262 66.9362 45.3757 66.9362 47.5913V55.9872C66.9362 58.2028 67.8107 59.2523 69.968 59.2523ZM97.1271 66.3655H86.8072V37.2131H95.961L97.1271 41.5276C98.818 39.2537 101.675 36.9215 105.581 36.9215C111.528 36.9215 113.394 41.0612 113.394 46.192V66.3655H103.074V47.5913C103.074 45.3757 102.258 44.3262 100.101 44.3262C97.9434 44.3262 97.1271 45.3757 97.1271 47.5913V66.3655ZM135.542 66.3655H133.21C123.823 66.3655 119.275 66.3072 119.275 54.7045V44.6178H115.135V37.2131C120.383 37.2131 122.19 34.7642 122.19 29.5168H129.595V37.2131H135.542V44.6178H129.595V54.7045C129.595 58.9608 131.985 58.9608 134.376 58.9608H135.542V66.3655ZM145.521 33.0734C142.664 33.0734 140.332 31.6741 140.332 28.5839C140.332 25.4938 142.664 24.0945 145.521 24.0945C148.378 24.0945 150.652 25.4938 150.652 28.5839C150.652 31.6741 148.378 33.0734 145.521 33.0734ZM150.535 66.3655H140.215V37.2131H150.535V66.3655ZM167.49 66.657C161.601 66.657 154.138 64.6163 154.138 55.8123V47.7662C154.138 38.9622 161.601 36.9215 167.49 36.9215C173.378 36.9215 180.783 38.9622 180.783 47.7662V53.4218H164.458V55.9872C164.458 58.2028 165.332 59.2523 167.49 59.2523C169.647 59.2523 170.463 58.2028 170.463 55.9872V55.2293L180.783 56.3953C180.783 64.3248 173.378 66.657 167.49 66.657ZM164.458 47.5913V48.0578H170.463V47.5913C170.463 45.3757 169.647 44.3262 167.49 44.3262C165.332 44.3262 164.458 45.3757 164.458 47.5913ZM194.606 66.3655H184.286V37.2131H193.439L194.606 41.5276C196.296 38.6707 199.153 36.9215 203.06 36.9215C209.065 36.9215 210.873 42.6354 209.123 51.2645L198.804 52.4306V47.5913C198.804 45.3757 198.395 44.3262 196.705 44.3262C195.014 44.3262 194.606 45.3757 194.606 47.5913V66.3655Z" fill="white"/>
</g>
<path id="DIGITAL MINILAB" d="M4.51661 14.8463H5.8511C6.29226 14.8463 6.68194 14.7654 7.02016 14.6037C7.36574 14.4419 7.65249 14.2213 7.88042 13.9419C8.1157 13.6625 8.29216 13.339 8.4098 12.9714C8.5348 12.6038 8.59729 12.2104 8.59729 11.7913C8.59729 11.5046 8.56421 11.2472 8.49804 11.0193C8.43921 10.784 8.33995 10.5818 8.20026 10.4127C8.06056 10.2436 7.88042 10.1149 7.65984 10.0267C7.44661 9.9311 7.1856 9.88331 6.87679 9.88331H5.57538L4.51661 14.8463ZM4.14162 8.4275H6.98708C8.09732 8.4275 8.93184 8.69587 9.49063 9.23261C10.0494 9.76199 10.3288 10.5156 10.3288 11.4935C10.3288 12.1773 10.2332 12.8133 10.0421 13.4015C9.85091 13.9897 9.56416 14.5007 9.18183 14.9345C8.80684 15.361 8.3326 15.6955 7.7591 15.9382C7.19295 16.1808 6.53122 16.3021 5.7739 16.3021H2.48729L4.14162 8.4275ZM12.8678 8.4275H14.6104L12.945 16.3021H11.2135L12.8678 8.4275ZM20.9729 15.497H20.9509C20.6935 15.8499 20.3921 16.1036 20.0465 16.258C19.7009 16.4051 19.3406 16.4786 18.9657 16.4786C17.8481 16.4786 16.9841 16.1808 16.3739 15.5852C15.771 14.9897 15.4695 14.1294 15.4695 13.0045C15.4695 12.3648 15.5688 11.7582 15.7673 11.1847C15.9658 10.6112 16.2489 10.1076 16.6165 9.67376C16.9915 9.23261 17.4437 8.88336 17.9731 8.62602C18.5098 8.36868 19.109 8.24001 19.7708 8.24001C20.234 8.24001 20.6678 8.29515 21.0722 8.40544C21.4766 8.51573 21.8295 8.68484 22.1309 8.91277C22.4324 9.1407 22.6714 9.43113 22.8478 9.78405C23.0243 10.1296 23.1125 10.545 23.1125 11.0303H21.381C21.3589 10.545 21.2082 10.2031 20.9288 10.0046C20.6494 9.79876 20.2671 9.69582 19.7818 9.69582C19.3406 9.69582 18.9546 9.79876 18.6238 10.0046C18.3002 10.2031 18.0319 10.4642 17.8186 10.7877C17.6128 11.1038 17.4584 11.4604 17.3554 11.8575C17.2525 12.2472 17.201 12.6295 17.201 13.0045C17.201 13.2765 17.2341 13.5339 17.3003 13.7765C17.3738 14.0191 17.4804 14.236 17.6201 14.4272C17.7672 14.611 17.951 14.7581 18.1716 14.8684C18.3995 14.9787 18.6716 15.0338 18.9877 15.0338C19.3186 15.0338 19.6017 14.9934 19.8369 14.9125C20.0796 14.8243 20.2854 14.7066 20.4546 14.5596C20.631 14.4125 20.7744 14.236 20.8847 14.0302C21.0023 13.8169 21.0979 13.5853 21.1714 13.3354H19.3517L19.6274 12.045H22.9691L22.0648 16.3021H20.9729V15.497ZM25.6027 8.4275H27.3453L25.6799 16.3021H23.9484L25.6027 8.4275ZM30.8624 9.88331H28.3919L28.7007 8.4275H35.2739L34.9651 9.88331H32.6049L31.2594 16.3021H29.5169L30.8624 9.88331ZM37.8826 8.4275H39.6583L40.9707 16.3021H39.2502L38.9965 14.5485H36.0518L35.0592 16.3021H33.2394L37.8826 8.4275ZM36.7356 13.2582H38.8421L38.4561 10.1259H38.4341L36.7356 13.2582ZM43.7894 8.4275H45.5319L44.1864 14.8463H47.9914L47.6825 16.3021H42.146L43.7894 8.4275ZM54.3058 8.4275H56.6991L57.3057 14.1294H57.3277L60.3607 8.4275H62.776L61.1107 16.3021H59.4894L60.9232 10.0377H60.9011L57.5704 16.3021H56.2469L55.4859 10.0377H55.4639L54.2838 16.3021H52.6515L54.3058 8.4275ZM64.863 8.4275H66.6055L64.9402 16.3021H63.2086L64.863 8.4275ZM68.6778 8.4275H70.4645L72.6041 14.0302H72.6262L73.7511 8.4275H75.3393L73.6739 16.3021H71.9424L69.7807 10.7767H69.7587L68.6337 16.3021H67.0235L68.6778 8.4275ZM77.404 8.4275H79.1466L77.4812 16.3021H75.7497L77.404 8.4275ZM81.2079 8.4275H82.9504L81.6049 14.8463H85.4099L85.1011 16.3021H79.5646L81.2079 8.4275ZM90.2871 8.4275H92.0627L93.3751 16.3021H91.6546L91.401 14.5485H88.4563L87.4637 16.3021H85.6439L90.2871 8.4275ZM89.14 13.2582H91.2466L90.8606 10.1259H90.8385L89.14 13.2582ZM97.1974 11.6148H99.1606C99.4767 11.6148 99.7488 11.5303 99.9767 11.3612C100.212 11.1847 100.33 10.9237 100.33 10.5781C100.33 10.2693 100.245 10.0598 100.076 9.94948C99.9142 9.83184 99.6936 9.77302 99.4142 9.77302H97.5834L97.1974 11.6148ZM96.1938 8.4275H99.5025C99.8995 8.4275 100.256 8.45323 100.572 8.5047C100.888 8.55617 101.157 8.65175 101.377 8.79145C101.598 8.9238 101.767 9.11129 101.885 9.35392C102.002 9.58921 102.061 9.89434 102.061 10.2693C102.061 10.4899 102.028 10.7068 101.962 10.92C101.896 11.1259 101.796 11.3134 101.664 11.4825C101.539 11.6443 101.385 11.7803 101.201 11.8906C101.024 12.0009 100.819 12.0707 100.583 12.1001V12.1222C100.958 12.2251 101.245 12.4236 101.444 12.7177C101.649 13.0045 101.752 13.339 101.752 13.7214C101.752 14.1478 101.668 14.5228 101.499 14.8463C101.337 15.1698 101.116 15.4382 100.837 15.6514C100.558 15.8646 100.238 16.0264 99.8774 16.1367C99.5172 16.247 99.1385 16.3021 98.7415 16.3021H94.5505L96.1938 8.4275ZM96.4916 14.9566H98.6643C99.0613 14.9566 99.3848 14.85 99.6348 14.6368C99.8922 14.4235 100.021 14.1074 100.021 13.6883C100.021 13.4824 99.9767 13.3206 99.8885 13.203C99.8076 13.0854 99.701 12.9971 99.5686 12.9383C99.4363 12.8721 99.2892 12.8317 99.1275 12.817C98.9657 12.8023 98.8076 12.7949 98.6532 12.7949H96.9548L96.4916 14.9566Z" fill="white"/>
</g>
</g>
</svg>
